<svg version="1.1" id="Layer_1" xmlns="http://www.w3.org/2000/svg" xmlns:xlink="http://www.w3.org/1999/xlink" x="0px" y="0px"
	 width="100%" viewBox="0 0 1280 610" enable-background="new 0 0 1280 610" xml:space="preserve">
<path fill="#000000" opacity="1.000000" stroke="none" 
	d="
M1281.000000,219.000000 
	C1281.000000,349.638916 1281.000000,480.277832 1281.000000,610.958374 
	C854.451721,610.958374 427.903473,610.958374 1.000000,610.958374 
	C1.000000,510.973419 1.000000,410.946411 1.369592,310.184479 
	C3.159858,315.679596 4.397963,321.958130 6.036957,328.130188 
	C10.208153,343.837830 14.745548,359.427368 23.108519,373.873260 
	C25.282164,378.225311 27.385452,382.316681 29.704962,386.281586 
	C45.481583,413.249603 66.194283,435.621674 91.861786,453.494568 
	C114.085098,468.969116 138.295303,480.075165 164.718887,485.639801 
	C178.471985,488.536102 192.642029,489.752991 206.692703,490.822632 
	C215.048248,491.458679 223.538147,490.345276 231.966919,490.000458 
	C249.770233,489.272217 267.026062,485.576233 283.897278,480.065491 
	C309.781586,471.610809 333.011566,458.487793 353.430664,439.898376 
	C358.347137,434.822784 362.994415,429.901459 367.569031,424.913452 
	C381.727203,409.475861 391.890381,391.487762 399.798035,372.307648 
	C409.944000,347.698456 414.522430,321.718201 415.843689,295.256683 
	C416.428253,283.549255 415.535156,271.746704 414.910706,260.008759 
	C414.575653,253.711395 413.388031,247.459366 412.606140,241.351028 
	C345.598816,241.351028 278.903503,241.351028 212.377747,241.351028 
	C212.377747,268.751709 212.377747,295.799927 212.377747,323.283356 
	C250.118454,323.283356 287.482635,323.283356 325.205536,323.283356 
	C321.884857,336.383453 317.613586,348.403046 310.345154,359.424561 
	C303.358002,370.019470 294.320587,378.353821 284.194458,386.077515 
	C280.936768,387.860779 278.103668,389.832245 275.069519,391.419342 
	C248.899902,405.108093 221.271240,410.132507 192.033142,405.000916 
	C157.691422,398.973572 130.674210,381.171936 111.139397,352.624115 
	C104.195976,342.477142 99.582954,330.735504 93.929901,319.336029 
	C92.636070,314.152191 91.112923,309.399567 90.040939,304.547241 
	C87.269386,292.001678 85.539742,279.330322 88.051964,266.537140 
	C89.790451,257.684113 92.016487,248.926834 94.397934,240.055237 
	C95.531349,238.652527 96.453018,237.386597 97.021843,235.978180 
	C98.849686,231.452393 100.267693,226.742142 102.344482,222.339233 
	C110.379204,205.305069 121.728714,190.896164 136.408554,178.976746 
	C148.635696,169.048843 162.201447,161.654648 177.153015,157.177078 
	C193.303757,152.340424 209.856857,150.520905 226.797852,152.906250 
	C238.526184,154.557648 250.099075,156.874176 260.522491,162.406021 
	C272.269989,168.640549 283.422119,175.996948 294.155914,182.457733 
	C313.868134,162.936844 334.283051,142.720032 355.401154,121.806900 
	C347.198547,115.552788 339.069977,108.969299 330.545776,102.945732 
	C317.568665,93.775490 303.543671,86.499313 288.642120,80.889870 
	C269.120514,73.541298 249.115051,68.382378 228.166718,68.089546 
	C216.411880,67.925217 204.618378,68.296776 192.891312,69.122765 
	C184.445114,69.717667 175.871948,70.686523 167.726517,72.871864 
	C155.049973,76.272865 142.474792,80.297798 130.240158,85.046371 
	C107.723465,93.785683 87.719963,106.843918 70.234520,123.453934 
	C61.746681,131.516815 53.405994,139.996750 46.496998,149.389954 
	C38.720009,159.963226 32.631020,171.778076 25.435266,183.040787 
	C23.822948,184.092163 22.085032,184.909149 21.418509,186.256256 
	C12.360165,204.564072 6.027484,223.760849 2.923192,243.993637 
	C2.808197,244.743134 1.664371,245.334793 1.000000,246.000000 
	C1.000000,164.353058 1.000000,82.706116 1.000000,1.029586 
	C427.543915,1.029586 854.087830,1.029586 1281.000000,1.029586 
	C1281.000000,71.359772 1281.000000,141.720184 1280.719727,212.837860 
	C1278.843140,214.063354 1277.249878,214.925308 1275.649902,214.937958 
	C1261.984741,215.045914 1248.317749,214.941925 1234.653198,215.080109 
	C1233.109863,215.095718 1230.985229,215.789459 1230.169922,216.919128 
	C1228.705688,218.947906 1227.988647,221.529480 1227.032593,223.909515 
	C1217.335571,248.051285 1207.679688,272.209625 1197.957886,296.341431 
	C1191.006836,313.595978 1184.008423,330.831726 1176.965576,348.049011 
	C1170.503784,363.845398 1163.954224,379.605835 1156.966919,396.536346 
	C1153.143555,387.271210 1149.784912,379.013458 1146.334351,370.794342 
	C1136.640259,347.703186 1126.797729,324.673737 1117.219849,301.534637 
	C1105.616699,273.502533 1094.244873,245.374680 1082.661621,217.334137 
	C1082.237793,216.307968 1080.644165,215.107956 1079.586304,215.099045 
	C1062.883179,214.958679 1046.178345,215.000427 1028.901123,215.000427 
	C1036.034912,230.862778 1042.954590,246.082947 1049.735229,261.364838 
	C1059.757812,283.953400 1069.658447,306.596100 1079.655640,329.195953 
	C1086.347534,344.323853 1093.189453,359.385620 1099.833984,374.534119 
	C1109.317505,396.154877 1118.526489,417.897644 1128.191406,439.436340 
	C1131.121582,445.966858 1134.914185,451.989746 1129.068726,458.754791 
	C1128.600220,459.297180 1128.775757,460.346527 1128.440674,461.061249 
	C1115.752686,488.122345 1103.042236,515.172913 1090.329468,542.222351 
	C1084.932251,553.706177 1079.523438,565.184509 1073.962280,577.000122 
	C1088.302856,577.000122 1102.108765,577.000122 1115.914795,577.000122 
	C1123.911865,577.000122 1123.730713,576.923401 1126.869141,569.514282 
	C1136.200195,547.484985 1145.642700,525.502563 1155.127930,503.539062 
	C1162.395386,486.711365 1169.775879,469.932404 1177.138550,453.146057 
	C1185.977905,432.992981 1194.851929,412.855072 1203.710693,392.710510 
	C1209.797729,378.868591 1215.936157,365.049042 1221.959351,351.179443 
	C1230.522461,331.461090 1239.011963,311.710693 1247.511719,291.964874 
	C1252.715576,279.875946 1257.837280,267.751434 1263.074829,255.677094 
	C1268.008301,244.303360 1273.003662,232.955704 1278.102539,221.655502 
	C1278.597656,220.557983 1280.012207,219.875244 1281.000000,219.000000 
M557.000000,386.500000 
	C557.000000,412.589813 557.000000,438.679626 557.000000,464.721985 
	C573.629028,464.721985 589.697693,464.721985 606.145996,464.721985 
	C606.145996,415.383942 606.145996,366.322662 606.145996,317.998444 
	C620.086914,317.998444 633.637329,317.998260 647.187744,317.998505 
	C660.683167,317.998779 674.198425,318.443573 687.666809,317.841003 
	C696.379395,317.451202 705.179321,316.186218 713.669006,314.171143 
	C739.373230,308.070129 759.825745,293.645905 776.311951,273.232483 
	C789.318054,257.127991 796.293457,238.490021 797.737854,218.158417 
	C798.534790,206.939331 797.541199,195.394531 795.803040,184.238327 
	C792.883057,165.497009 784.544006,148.953506 771.503418,135.096588 
	C759.686340,122.539757 745.773010,112.740677 729.844360,106.023483 
	C718.185791,101.107002 706.059143,97.210327 693.367310,97.120316 
	C649.384460,96.808350 605.398071,96.997734 561.413025,97.009941 
	C559.984863,97.010338 558.556702,97.158043 557.000000,97.244186 
	C557.000000,193.592148 557.000000,289.546082 557.000000,386.500000 
M1016.616211,272.091980 
	C1016.087036,271.099945 1015.395813,270.160583 1015.053528,269.107819 
	C1011.272095,257.476013 1004.613037,247.659012 996.328552,238.792694 
	C986.502930,228.277130 975.162354,219.725082 961.558350,215.150070 
	C949.999207,211.262711 938.031982,208.093918 925.993164,206.285690 
	C916.522461,204.863205 906.667236,206.036438 896.983154,205.990295 
	C885.471680,205.935471 874.421387,208.470947 863.526672,211.863876 
	C838.801697,219.563858 819.228455,234.360992 803.786560,255.175995 
	C804.577881,256.010040 805.135437,256.907471 805.940613,257.400085 
	C818.310852,264.967285 830.729675,272.455078 843.094910,280.030304 
	C845.664612,281.604553 846.678162,280.817841 848.378235,278.378693 
	C860.989990,260.284149 878.448425,250.030945 900.404419,248.067886 
	C922.635315,246.080261 941.985352,253.348740 957.963135,268.636902 
	C971.327637,281.424652 974.658875,297.877747 972.630859,316.080688 
	C971.667908,315.690887 970.772461,315.448700 969.998962,314.997467 
	C956.278809,306.993378 941.103882,303.597992 925.604309,302.188873 
	C914.855652,301.211639 903.928650,301.617157 893.114624,302.119995 
	C884.334534,302.528229 875.502380,303.468231 866.873230,305.115082 
	C850.633240,308.214508 835.786194,314.752167 823.510132,326.077118 
	C803.615356,344.430267 795.342163,367.130127 797.884338,394.182159 
	C799.777588,414.329315 808.170044,431.251465 822.038330,445.340454 
	C838.885681,462.456024 860.293823,470.760254 883.799377,472.794342 
	C901.092285,474.290802 918.530701,473.556610 934.770386,465.959351 
	C946.449402,460.495636 957.039307,453.497498 965.285828,443.325012 
	C968.901489,438.865021 972.785950,434.622864 977.222961,429.503479 
	C977.222961,441.981598 977.222961,453.392456 977.222961,464.704224 
	C992.325317,464.704224 1007.064453,464.704224 1021.751953,464.704224 
	C1021.866943,464.095947 1021.978333,463.781860 1021.978394,463.467773 
	C1021.990845,408.803589 1021.997742,354.139374 1021.982117,299.475189 
	C1021.981812,298.339050 1021.780701,297.190094 1021.561646,296.068909 
	C1020.048584,288.321106 1018.505798,280.579132 1016.616211,272.091980 
z"/>
<path fill="#FFFFFF" opacity="1.000000" stroke="none" 
	d="
M1281.000000,218.571533 
	C1280.012207,219.875244 1278.597656,220.557983 1278.102539,221.655502 
	C1273.003662,232.955704 1268.008301,244.303360 1263.074829,255.677094 
	C1257.837280,267.751434 1252.715576,279.875946 1247.511719,291.964874 
	C1239.011963,311.710693 1230.522461,331.461090 1221.959351,351.179443 
	C1215.936157,365.049042 1209.797729,378.868591 1203.710693,392.710510 
	C1194.851929,412.855072 1185.977905,432.992981 1177.138550,453.146057 
	C1169.775879,469.932404 1162.395386,486.711365 1155.127930,503.539062 
	C1145.642700,525.502563 1136.200195,547.484985 1126.869141,569.514282 
	C1123.730713,576.923401 1123.911865,577.000122 1115.914795,577.000122 
	C1102.108765,577.000122 1088.302856,577.000122 1073.962280,577.000122 
	C1079.523438,565.184509 1084.932251,553.706177 1090.329468,542.222351 
	C1103.042236,515.172913 1115.752686,488.122345 1128.440674,461.061249 
	C1128.775757,460.346527 1128.600220,459.297180 1129.068726,458.754791 
	C1134.914185,451.989746 1131.121582,445.966858 1128.191406,439.436340 
	C1118.526489,417.897644 1109.317505,396.154877 1099.833984,374.534119 
	C1093.189453,359.385620 1086.347534,344.323853 1079.655640,329.195953 
	C1069.658447,306.596100 1059.757812,283.953400 1049.735229,261.364838 
	C1042.954590,246.082947 1036.034912,230.862778 1028.901123,215.000427 
	C1046.178345,215.000427 1062.883179,214.958679 1079.586304,215.099045 
	C1080.644165,215.107956 1082.237793,216.307968 1082.661621,217.334137 
	C1094.244873,245.374680 1105.616699,273.502533 1117.219849,301.534637 
	C1126.797729,324.673737 1136.640259,347.703186 1146.334351,370.794342 
	C1149.784912,379.013458 1153.143555,387.271210 1156.966919,396.536346 
	C1163.954224,379.605835 1170.503784,363.845398 1176.965576,348.049011 
	C1184.008423,330.831726 1191.006836,313.595978 1197.957886,296.341431 
	C1207.679688,272.209625 1217.335571,248.051285 1227.032593,223.909515 
	C1227.988647,221.529480 1228.705688,218.947906 1230.169922,216.919128 
	C1230.985229,215.789459 1233.109863,215.095718 1234.653198,215.080109 
	C1248.317749,214.941925 1261.984741,215.045914 1275.649902,214.937958 
	C1277.249878,214.925308 1278.843140,214.063354 1280.719727,213.297562 
	C1281.000000,214.714355 1281.000000,216.428711 1281.000000,218.571533 
z"/>
<path fill="#FBBC04" opacity="1.000000" stroke="none" 
	d="
M1.000000,246.468658 
	C1.664371,245.334793 2.808197,244.743134 2.923192,243.993637 
	C6.027484,223.760849 12.360165,204.564072 21.418509,186.256256 
	C22.085032,184.909149 23.822948,184.092163 25.441734,183.411804 
	C26.703026,185.091019 27.327576,186.719421 28.506121,187.633667 
	C47.859627,202.647263 67.320686,217.522385 86.648079,232.569244 
	C89.400162,234.711792 91.579987,237.589371 94.024666,240.126770 
	C92.016487,248.926834 89.790451,257.684113 88.051964,266.537140 
	C85.539742,279.330322 87.269386,292.001678 90.040939,304.547241 
	C91.112923,309.399567 92.636070,314.152191 93.601166,319.453735 
	C83.497772,327.456573 73.766304,334.981384 63.991329,342.449249 
	C50.390682,352.839844 36.757462,363.187836 23.138201,373.554077 
	C14.745548,359.427368 10.208153,343.837830 6.036957,328.130188 
	C4.397963,321.958130 3.159858,315.679596 1.369592,309.724792 
	C1.000000,288.979095 1.000000,267.958221 1.000000,246.468658 
z"/>
<path fill="#FFFFFF" opacity="1.000000" stroke="none" 
	d="
M557.000000,386.000000 
	C557.000000,289.546082 557.000000,193.592148 557.000000,97.244186 
	C558.556702,97.158043 559.984863,97.010338 561.413025,97.009941 
	C605.398071,96.997734 649.384460,96.808350 693.367310,97.120316 
	C706.059143,97.210327 718.185791,101.107002 729.844360,106.023483 
	C745.773010,112.740677 759.686340,122.539757 771.503418,135.096588 
	C784.544006,148.953506 792.883057,165.497009 795.803040,184.238327 
	C797.541199,195.394531 798.534790,206.939331 797.737854,218.158417 
	C796.293457,238.490021 789.318054,257.127991 776.311951,273.232483 
	C759.825745,293.645905 739.373230,308.070129 713.669006,314.171143 
	C705.179321,316.186218 696.379395,317.451202 687.666809,317.841003 
	C674.198425,318.443573 660.683167,317.998779 647.187744,317.998505 
	C633.637329,317.998260 620.086914,317.998444 606.145996,317.998444 
	C606.145996,366.322662 606.145996,415.383942 606.145996,464.721985 
	C589.697693,464.721985 573.629028,464.721985 557.000000,464.721985 
	C557.000000,438.679626 557.000000,412.589813 557.000000,386.000000 
M730.990295,251.468582 
	C733.654968,248.373215 736.578735,245.461868 738.933289,242.146301 
	C744.801697,233.882599 748.684998,224.897781 750.203735,214.644943 
	C752.190430,201.233063 749.962891,188.946732 743.661072,177.086807 
	C738.801270,167.940796 731.993958,160.601135 723.871704,154.400513 
	C714.289734,147.085541 703.564331,142.207596 691.393555,142.084839 
	C664.397827,141.812546 637.397400,141.996384 610.398926,142.010071 
	C608.971558,142.010788 607.544373,142.157837 606.326538,142.225174 
	C606.326538,184.720673 606.326538,226.791458 606.326538,269.000000 
	C632.473450,269.000000 658.297974,268.723450 684.113220,269.095276 
	C701.937012,269.351959 717.317749,263.875702 730.990295,251.468582 
z"/>
<path fill="#FFFFFF" opacity="1.000000" stroke="none" 
	d="
M1016.794434,272.463623 
	C1018.505798,280.579132 1020.048584,288.321106 1021.561646,296.068909 
	C1021.780701,297.190094 1021.981812,298.339050 1021.982117,299.475189 
	C1021.997742,354.139374 1021.990845,408.803589 1021.978394,463.467773 
	C1021.978333,463.781860 1021.866943,464.095947 1021.751953,464.704224 
	C1007.064453,464.704224 992.325317,464.704224 977.222961,464.704224 
	C977.222961,453.392456 977.222961,441.981598 977.222961,429.503479 
	C972.785950,434.622864 968.901489,438.865021 965.285828,443.325012 
	C957.039307,453.497498 946.449402,460.495636 934.770386,465.959351 
	C918.530701,473.556610 901.092285,474.290802 883.799377,472.794342 
	C860.293823,470.760254 838.885681,462.456024 822.038330,445.340454 
	C808.170044,431.251465 799.777588,414.329315 797.884338,394.182159 
	C795.342163,367.130127 803.615356,344.430267 823.510132,326.077118 
	C835.786194,314.752167 850.633240,308.214508 866.873230,305.115082 
	C875.502380,303.468231 884.334534,302.528229 893.114624,302.119995 
	C903.928650,301.617157 914.855652,301.211639 925.604309,302.188873 
	C941.103882,303.597992 956.278809,306.993378 969.998962,314.997467 
	C970.772461,315.448700 971.667908,315.690887 972.630859,316.080688 
	C974.658875,297.877747 971.327637,281.424652 957.963135,268.636902 
	C941.985352,253.348740 922.635315,246.080261 900.404419,248.067886 
	C878.448425,250.030945 860.989990,260.284149 848.378235,278.378693 
	C846.678162,280.817841 845.664612,281.604553 843.094910,280.030304 
	C830.729675,272.455078 818.310852,264.967285 805.940613,257.400085 
	C805.135437,256.907471 804.577881,256.010040 803.786560,255.175995 
	C819.228455,234.360992 838.801697,219.563858 863.526672,211.863876 
	C874.421387,208.470947 885.471680,205.935471 896.983154,205.990295 
	C906.667236,206.036438 916.522461,204.863205 925.993164,206.285690 
	C938.031982,208.093918 949.999207,211.262711 961.558350,215.150070 
	C975.162354,219.725082 986.502930,228.277130 996.328552,238.792694 
	C1004.613037,247.659012 1011.272095,257.476013 1015.053528,269.107819 
	C1015.395813,270.160583 1016.087036,271.099945 1016.794434,272.463623 
M914.510681,341.000092 
	C897.135254,340.470367 881.346436,345.083435 866.934143,354.939178 
	C856.756531,361.899048 849.498474,370.824005 848.148376,383.165466 
	C846.637085,396.979614 851.092712,408.857361 862.780640,417.267395 
	C878.491089,428.571899 895.435852,433.881714 914.989380,429.148346 
	C927.691650,426.073547 938.680603,420.432861 948.636353,412.021912 
	C962.059875,400.681122 971.967041,387.516296 975.144226,369.732452 
	C977.117126,358.688995 976.651917,356.982941 966.858459,351.967987 
	C950.709106,343.698303 933.488770,340.597229 914.510681,341.000092 
z"/>
<path fill="#EA4335" opacity="1.000000" stroke="none" 
	d="
M94.397934,240.055237 
	C91.579987,237.589371 89.400162,234.711792 86.648079,232.569244 
	C67.320686,217.522385 47.859627,202.647263 28.506121,187.633667 
	C27.327576,186.719421 26.703026,185.091019 25.814240,183.423889 
	C32.631020,171.778076 38.720009,159.963226 46.496998,149.389954 
	C53.405994,139.996750 61.746681,131.516815 70.234520,123.453934 
	C87.719963,106.843918 107.723465,93.785683 130.240158,85.046371 
	C142.474792,80.297798 155.049973,76.272865 167.726517,72.871864 
	C175.871948,70.686523 184.445114,69.717667 192.891312,69.122765 
	C204.618378,68.296776 216.411880,67.925217 228.166718,68.089546 
	C249.115051,68.382378 269.120514,73.541298 288.642120,80.889870 
	C303.543671,86.499313 317.568665,93.775490 330.545776,102.945732 
	C339.069977,108.969299 347.198547,115.552788 355.401154,121.806900 
	C334.283051,142.720032 313.868134,162.936844 294.155914,182.457733 
	C283.422119,175.996948 272.269989,168.640549 260.522491,162.406021 
	C250.099075,156.874176 238.526184,154.557648 226.797852,152.906250 
	C209.856857,150.520905 193.303757,152.340424 177.153015,157.177078 
	C162.201447,161.654648 148.635696,169.048843 136.408554,178.976746 
	C121.728714,190.896164 110.379204,205.305069 102.344482,222.339233 
	C100.267693,226.742142 98.849686,231.452393 97.021843,235.978180 
	C96.453018,237.386597 95.531349,238.652527 94.397934,240.055237 
z"/>
<path fill="#34A853" opacity="1.000000" stroke="none" 
	d="
M23.108513,373.873260 
	C36.757462,363.187836 50.390682,352.839844 63.991329,342.449249 
	C73.766304,334.981384 83.497772,327.456573 93.577377,319.839478 
	C99.582954,330.735504 104.195976,342.477142 111.139397,352.624115 
	C130.674210,381.171936 157.691422,398.973572 192.033142,405.000916 
	C221.271240,410.132507 248.899902,405.108093 275.069519,391.419342 
	C278.103668,389.832245 280.936768,387.860779 284.336121,386.399597 
	C298.188080,397.121918 311.580933,407.494202 324.941132,417.908386 
	C334.359772,425.250214 343.734131,432.648865 353.128265,440.022125 
	C333.011566,458.487793 309.781586,471.610809 283.897278,480.065491 
	C267.026062,485.576233 249.770233,489.272217 231.966919,490.000458 
	C223.538147,490.345276 215.048248,491.458679 206.692703,490.822632 
	C192.642029,489.752991 178.471985,488.536102 164.718887,485.639801 
	C138.295303,480.075165 114.085098,468.969116 91.861786,453.494568 
	C66.194283,435.621674 45.481583,413.249603 29.704962,386.281586 
	C27.385452,382.316681 25.282164,378.225311 23.108513,373.873260 
z"/>
<path fill="#4285F4" opacity="1.000000" stroke="none" 
	d="
M353.430664,439.898376 
	C343.734131,432.648865 334.359772,425.250214 324.941132,417.908386 
	C311.580933,407.494202 298.188080,397.121918 284.667511,386.409637 
	C294.320587,378.353821 303.358002,370.019470 310.345154,359.424561 
	C317.613586,348.403046 321.884857,336.383453 325.205536,323.283356 
	C287.482635,323.283356 250.118454,323.283356 212.377747,323.283356 
	C212.377747,295.799927 212.377747,268.751709 212.377747,241.351028 
	C278.903503,241.351028 345.598816,241.351028 412.606140,241.351028 
	C413.388031,247.459366 414.575653,253.711395 414.910706,260.008759 
	C415.535156,271.746704 416.428253,283.549255 415.843689,295.256683 
	C414.522430,321.718201 409.944000,347.698456 399.798035,372.307648 
	C391.890381,391.487762 381.727203,409.475861 367.569031,424.913452 
	C362.994415,429.901459 358.347137,434.822784 353.430664,439.898376 
z"/>
<path fill="#000000" opacity="1.000000" stroke="none" 
	d="
M730.746887,251.731888 
	C717.317749,263.875702 701.937012,269.351959 684.113220,269.095276 
	C658.297974,268.723450 632.473450,269.000000 606.326538,269.000000 
	C606.326538,226.791458 606.326538,184.720673 606.326538,142.225174 
	C607.544373,142.157837 608.971558,142.010788 610.398926,142.010071 
	C637.397400,141.996384 664.397827,141.812546 691.393555,142.084839 
	C703.564331,142.207596 714.289734,147.085541 723.871704,154.400513 
	C731.993958,160.601135 738.801270,167.940796 743.661072,177.086807 
	C749.962891,188.946732 752.190430,201.233063 750.203735,214.644943 
	C748.684998,224.897781 744.801697,233.882599 738.933289,242.146301 
	C736.578735,245.461868 733.654968,248.373215 730.746887,251.731888 
z"/>
<path fill="#000000" opacity="1.000000" stroke="none" 
	d="
M915.007324,341.000092 
	C933.488770,340.597229 950.709106,343.698303 966.858459,351.967987 
	C976.651917,356.982941 977.117126,358.688995 975.144226,369.732452 
	C971.967041,387.516296 962.059875,400.681122 948.636353,412.021912 
	C938.680603,420.432861 927.691650,426.073547 914.989380,429.148346 
	C895.435852,433.881714 878.491089,428.571899 862.780640,417.267395 
	C851.092712,408.857361 846.637085,396.979614 848.148376,383.165466 
	C849.498474,370.824005 856.756531,361.899048 866.934143,354.939178 
	C881.346436,345.083435 897.135254,340.470367 915.007324,341.000092 
z"/>
</svg>