<svg xmlns="http://www.w3.org/2000/svg" xmlns:xlink="http://www.w3.org/1999/xlink" viewBox="0,0,256,256" width="32px" height="32px"><g fill="#666666" fill-rule="nonzero" stroke="none" stroke-width="1" stroke-linecap="butt" stroke-linejoin="miter" stroke-miterlimit="10" stroke-dasharray="" stroke-dashoffset="0" font-family="none" font-weight="none" font-size="none" text-anchor="none" style="mix-blend-mode: normal"><g transform="scale(16,16)"><path d="M8,1c-2.20312,0 -4,1.79688 -4,4v1h-0.5c-0.82422,0 -1.5,0.67578 -1.5,1.5v5c0,0.82422 0.67578,1.5 1.5,1.5h9c0.82422,0 1.5,-0.67578 1.5,-1.5v-5c0,-0.82422 -0.67578,-1.5 -1.5,-1.5h-0.5v-1c0,-2.20312 -1.79687,-4 -4,-4zM8,2c1.66406,0 3,1.33594 3,3v1h-6v-1c0,-1.66406 1.33594,-3 3,-3zM3.5,7h9c0.28125,0 0.5,0.21875 0.5,0.5v5c0,0.28125 -0.21875,0.5 -0.5,0.5h-9c-0.28125,0 -0.5,-0.21875 -0.5,-0.5v-5c0,-0.28125 0.21875,-0.5 0.5,-0.5z"></path></g></g></svg>