<?xml version="1.0" standalone="no"?>
<!DOCTYPE svg PUBLIC "-//W3C//DTD SVG 20010904//EN"
 "http://www.w3.org/TR/2001/REC-SVG-20010904/DTD/svg10.dtd">
<svg version="1.0" xmlns="http://www.w3.org/2000/svg"
 width="1080.000000pt" height="1080.000000pt" viewBox="0 0 1080.000000 1080.000000"
 preserveAspectRatio="xMidYMid meet">
<metadata>
Created by potrace 1.14, written by Peter Selinger 2001-2017
</metadata>
<g transform="translate(0.000000,1080.000000) scale(0.100000,-0.100000)"
fill="#000000" stroke="none">
<path d="M4449 6631 c-55 -56 -32 -117 66 -169 42 -22 51 -32 53 -58 4 -40
-19 -64 -62 -64 -37 0 -59 20 -71 65 -8 30 -8 29 -16 -15 -3 -25 -3 -49 1 -53
4 -5 32 -11 62 -14 86 -9 138 27 138 94 0 40 -15 56 -84 95 -64 36 -81 62 -62
99 24 49 106 28 106 -28 0 -43 18 -23 22 25 5 50 1 64 -10 45 -5 -8 -13 -9
-22 -3 -8 6 -32 10 -53 10 -29 0 -46 -7 -68 -29z"/>
<path d="M4919 6653 l-127 -4 -6 -31 c-8 -42 -8 -58 3 -58 4 0 12 15 17 33 8
28 14 32 47 35 l37 3 0 -140 0 -141 -25 0 c-14 0 -25 -4 -25 -10 0 -6 33 -10
80 -10 47 0 80 4 80 10 0 6 -11 10 -25 10 l-25 0 0 141 0 140 37 -3 c32 -3 38
-7 45 -37 5 -18 11 -32 12 -30 8 9 16 99 9 97 -4 -1 -65 -4 -134 -5z"/>
<path d="M3985 6640 c3 -5 13 -10 21 -10 11 0 14 -25 14 -140 0 -132 -1 -140
-19 -140 -11 0 -23 -4 -26 -10 -4 -6 40 -10 124 -10 l131 0 0 29 c0 16 3 36 6
45 12 32 -13 15 -29 -19 -16 -34 -18 -35 -77 -35 l-60 0 0 70 c0 67 1 70 24
70 34 0 56 -10 56 -25 0 -8 5 -17 10 -20 6 -4 10 16 9 52 0 56 -1 57 -16 36
-11 -16 -26 -23 -49 -23 l-34 0 0 60 0 60 51 0 c47 0 52 -2 62 -30 16 -42 27
-37 27 10 l0 40 -116 0 c-74 0 -113 -4 -109 -10z"/>
<path d="M5502 6625 c-25 -21 -32 -34 -30 -54 4 -36 38 -42 38 -6 0 62 52 89
84 43 36 -51 12 -121 -71 -206 l-67 -67 103 -3 c57 -1 105 -1 106 0 1 2 5 20
8 41 6 39 -7 52 -18 17 -5 -17 -15 -20 -70 -20 l-64 0 70 68 c66 64 69 70 69
114 0 62 -23 89 -81 95 -38 4 -50 1 -77 -22z"/>
<path d="M5890 6622 c-46 -46 -62 -134 -39 -216 34 -122 165 -112 199 15 13
47 7 137 -11 173 -32 61 -102 74 -149 28z m96 -16 c20 -32 22 -191 2 -232 -15
-32 -48 -42 -67 -21 -32 39 -32 224 0 263 18 21 47 17 65 -10z"/>
<path d="M6275 6638 c-30 -16 -45 -39 -45 -70 0 -21 5 -28 20 -28 16 0 20 7
20 33 0 38 15 57 45 57 33 0 45 -20 45 -74 0 -61 -17 -92 -91 -167 l-54 -54
99 -3 c54 -1 101 -1 103 2 8 8 21 75 15 80 -3 3 -10 -4 -16 -17 -10 -19 -21
-22 -76 -25 l-65 -2 58 51 c94 84 112 146 58 200 -32 31 -78 38 -116 17z"/>
<path d="M6650 6622 c-46 -46 -62 -134 -39 -216 34 -122 165 -112 199 15 13
47 7 137 -11 173 -32 61 -102 74 -149 28z m96 -16 c20 -32 22 -191 2 -232 -15
-32 -48 -42 -67 -21 -32 39 -32 224 0 263 18 21 47 17 65 -10z"/>
<path d="M8900 5924 c-30 -7 -69 -13 -86 -13 -29 -1 -31 -4 -54 -83 -62 -220
-241 -742 -264 -773 -19 -24 -37 -35 -66 -40 -83 -14 -35 -25 110 -25 146 0
194 11 108 25 -50 8 -78 30 -77 59 0 12 17 80 37 151 l37 130 125 0 125 0 38
-145 c20 -80 36 -154 35 -165 -2 -14 -14 -23 -40 -29 -21 -5 -38 -13 -38 -18
0 -4 97 -8 215 -8 200 0 268 9 176 24 -21 3 -43 11 -49 18 -25 31 -114 317
-217 697 -30 112 -56 205 -57 205 -2 1 -28 -4 -58 -10z m-20 -521 c0 -10 -29
-13 -110 -13 -60 0 -110 3 -110 7 0 7 107 358 117 383 5 13 102 -343 103 -377z"/>
<path d="M3093 5915 c2 -5 23 -13 46 -16 24 -3 47 -12 52 -20 15 -23 11 -799
-4 -829 -10 -19 -22 -26 -56 -30 -25 -3 -46 -9 -48 -15 -2 -7 123 -10 362 -10
201 0 365 2 365 5 0 3 9 57 20 120 11 63 20 123 20 133 0 35 -18 15 -40 -43
-30 -81 -95 -153 -152 -169 -24 -7 -83 -11 -133 -9 l-90 3 -6 30 c-4 17 -7
112 -8 213 l-1 182 60 0 c108 0 159 -36 175 -122 14 -76 25 -35 25 96 0 73 3
148 6 165 8 39 -13 43 -22 4 -21 -88 -59 -113 -169 -113 l-75 0 0 123 c0 68 3
158 6 200 l7 77 94 0 c125 0 153 -12 186 -83 15 -30 29 -73 33 -96 9 -56 24
-52 24 7 0 26 3 83 6 127 l7 80 -347 0 c-226 0 -345 -3 -343 -10z"/>
<path d="M4055 5919 c-6 -8 11 -15 68 -25 27 -4 39 -12 43 -28 3 -12 4 -203 2
-424 -3 -445 1 -416 -70 -428 -89 -15 -23 -24 177 -24 201 0 268 9 175 24 -24
4 -43 14 -50 25 -6 12 -10 102 -10 220 l0 201 38 0 c56 0 106 -17 132 -45 21
-22 25 -40 33 -143 5 -64 13 -134 18 -154 21 -86 99 -129 228 -127 70 0 136
17 74 18 -43 1 -61 22 -67 79 -21 172 -49 266 -92 304 -30 26 -105 57 -176 71
l-63 13 63 13 c165 32 235 102 234 233 0 105 -51 167 -155 187 -64 12 -596 21
-602 10z m481 -45 c35 -24 58 -109 52 -199 -8 -124 -49 -175 -150 -190 l-48
-6 0 183 c0 198 3 224 29 232 27 8 91 -3 117 -20z"/>
<path d="M5407 5923 c-206 -2 -316 -7 -312 -13 3 -6 23 -10 44 -10 21 0 43 -6
49 -13 16 -19 25 -338 17 -600 -8 -258 -10 -267 -65 -267 -32 0 -60 -9 -60
-19 0 -3 164 -6 365 -6 358 0 366 0 370 20 10 40 35 211 35 233 0 37 -14 25
-33 -27 -27 -76 -76 -142 -126 -168 -38 -20 -59 -23 -147 -23 -59 0 -105 4
-109 10 -4 6 -9 103 -12 215 l-6 205 59 0 c119 0 166 -32 180 -122 12 -73 24
-37 24 75 0 61 3 136 6 165 8 66 -7 69 -27 5 -21 -71 -60 -93 -160 -93 l-79 0
0 73 c0 39 3 129 7 200 l6 127 99 0 c69 0 108 -5 128 -15 34 -18 64 -71 84
-147 24 -95 36 -71 36 71 l0 131 -27 -2 c-16 -2 -171 -4 -346 -5z"/>
<path d="M7463 5915 c2 -5 23 -13 46 -16 24 -3 47 -12 52 -20 15 -23 11 -799
-4 -829 -10 -19 -22 -26 -56 -30 -25 -3 -46 -9 -48 -15 -2 -7 123 -10 362 -10
201 0 365 2 365 5 0 3 9 57 20 120 11 63 20 123 20 133 0 35 -18 15 -40 -43
-30 -81 -95 -153 -152 -169 -24 -7 -83 -11 -133 -9 l-90 3 -6 30 c-4 17 -7
112 -8 213 l-1 182 60 0 c108 0 159 -36 175 -122 14 -76 25 -35 25 96 0 73 3
148 6 165 8 39 -13 43 -22 4 -21 -88 -59 -113 -169 -113 l-75 0 0 123 c0 68 3
158 6 200 l7 77 94 0 c125 0 153 -12 186 -83 15 -30 29 -73 33 -96 9 -56 24
-52 24 7 0 26 3 83 6 127 l7 80 -347 0 c-226 0 -345 -3 -343 -10z"/>
<path d="M9465 5919 c-6 -8 11 -15 68 -25 27 -4 39 -12 43 -28 3 -12 4 -203 2
-424 -3 -445 1 -416 -70 -428 -89 -15 -23 -24 177 -24 201 0 268 9 175 24 -24
4 -43 14 -50 25 -6 12 -10 102 -10 220 l0 201 38 0 c56 0 106 -17 132 -45 21
-22 25 -40 33 -143 5 -64 13 -134 18 -154 21 -86 99 -129 228 -127 70 0 136
17 74 18 -43 1 -61 22 -67 79 -21 172 -49 266 -92 304 -30 26 -105 57 -176 71
l-63 13 63 13 c165 32 235 102 234 233 0 105 -51 167 -155 187 -64 12 -596 21
-602 10z m481 -45 c35 -24 58 -109 52 -199 -8 -124 -49 -175 -150 -190 l-48
-6 0 183 c0 198 3 224 29 232 27 8 91 -3 117 -20z"/>
<path d="M434 5911 c3 -4 19 -11 35 -14 47 -10 65 -39 114 -190 45 -136 187
-627 202 -694 7 -33 7 -33 65 -33 l59 0 10 38 c5 20 44 178 87 350 43 171 81
312 84 312 3 0 22 -60 43 -132 20 -73 66 -230 101 -348 l64 -215 54 3 c29 2
56 7 59 10 3 4 32 93 63 197 97 324 197 624 220 657 14 22 34 35 59 41 72 17
35 27 -103 27 -87 0 -140 -4 -140 -10 0 -5 11 -10 24 -10 46 0 85 -13 91 -29
9 -31 -162 -639 -176 -623 -6 6 -164 534 -189 630 l-11 42 -73 0 -74 0 -21
-92 c-61 -273 -136 -567 -142 -561 -10 11 -159 554 -162 589 -2 26 2 30 41 39
24 6 40 14 36 18 -11 10 -426 9 -420 -2z"/>
<path d="M1920 5911 c0 -4 19 -11 41 -14 23 -3 47 -11 53 -17 8 -8 11 -130 11
-420 0 -459 4 -437 -74 -447 -22 -3 -41 -10 -41 -14 0 -5 99 -9 220 -9 205 0
273 9 181 24 -21 3 -43 11 -49 18 -5 7 -13 106 -17 221 l-7 207 161 0 161 0 0
-192 c0 -106 -3 -203 -6 -216 -5 -17 -18 -26 -51 -35 -33 -9 -40 -13 -26 -18
26 -11 413 -11 413 0 0 4 -19 11 -41 14 -23 3 -47 10 -53 17 -13 13 -22 715
-9 800 8 55 8 55 51 64 23 6 42 13 42 18 0 4 -94 8 -210 8 -133 0 -210 -4
-210 -10 0 -5 12 -10 28 -10 15 0 38 -7 50 -16 21 -15 22 -20 22 -205 l0 -189
-154 0 c-96 0 -157 4 -161 10 -4 6 -3 92 1 191 7 196 11 209 65 209 16 0 29 5
29 10 0 6 -77 10 -210 10 -115 0 -210 -4 -210 -9z"/>
<path d="M5984 5911 c3 -4 19 -11 35 -14 47 -10 65 -39 114 -190 45 -136 187
-627 202 -694 7 -33 7 -33 65 -33 l59 0 10 38 c5 20 44 178 87 350 43 171 81
312 84 312 3 0 22 -60 43 -132 20 -73 66 -230 101 -348 l64 -215 54 3 c29 2
56 7 59 10 3 4 32 93 63 197 97 324 197 624 220 657 14 22 34 35 59 41 72 17
35 27 -103 27 -87 0 -140 -4 -140 -10 0 -5 11 -10 24 -10 46 0 85 -13 91 -29
9 -31 -162 -639 -176 -623 -6 6 -164 534 -189 630 l-11 42 -73 0 -74 0 -21
-92 c-61 -273 -136 -567 -142 -561 -10 11 -159 554 -162 589 -2 26 2 30 41 39
24 6 40 14 36 18 -11 10 -426 9 -420 -2z"/>
<path d="M3397 4510 c-34 -27 -45 -81 -23 -115 9 -14 41 -39 72 -56 66 -38 80
-59 62 -97 -28 -57 -128 -32 -128 33 0 14 -4 25 -10 25 -5 0 -10 -20 -10 -45
0 -40 3 -47 28 -56 15 -6 49 -9 76 -6 63 6 96 39 96 96 0 42 -13 58 -76 90
-56 27 -74 47 -74 80 0 34 17 51 51 51 28 0 48 -17 65 -59 10 -25 11 -24 17
23 7 50 2 70 -11 49 -5 -8 -13 -9 -22 -3 -26 17 -86 11 -113 -10z"/>
<path d="M4254 4516 c-53 -23 -78 -71 -82 -151 -2 -57 1 -76 17 -103 59 -93
195 -97 252 -6 33 54 34 153 1 205 -38 62 -118 85 -188 55z m105 -16 c30 -15
46 -70 46 -152 -1 -93 -21 -131 -74 -136 -72 -7 -106 51 -99 173 3 61 7 78 27
99 26 27 67 34 100 16z"/>
<path d="M5208 4523 c-125 -4 -128 -4 -134 -27 -3 -13 -4 -35 -2 -47 4 -22 6
-20 20 14 15 33 21 37 52 37 l36 0 0 -140 0 -140 -25 0 c-14 0 -25 -4 -25 -10
0 -6 34 -10 81 -10 51 0 78 4 74 10 -3 6 -14 10 -25 10 -26 0 -30 19 -30 156
l0 124 39 0 c40 0 51 -11 51 -51 0 -10 5 -19 10 -19 6 0 10 23 10 50 0 28 -1
49 -2 48 -2 -1 -60 -4 -130 -5z"/>
<path d="M5567 4510 c-34 -27 -45 -81 -23 -115 9 -14 41 -39 72 -56 66 -38 80
-59 62 -97 -28 -57 -128 -32 -128 33 0 14 -4 25 -10 25 -5 0 -10 -20 -10 -45
0 -40 3 -47 28 -56 15 -6 49 -9 76 -6 63 6 96 39 96 96 0 42 -13 58 -76 90
-56 27 -74 47 -74 80 0 34 17 51 51 51 28 0 48 -17 65 -59 10 -25 11 -24 17
23 7 50 2 70 -11 49 -5 -8 -13 -9 -22 -3 -26 17 -86 11 -113 -10z"/>
<path d="M6278 4523 c-125 -4 -128 -4 -134 -27 -3 -13 -4 -35 -2 -47 4 -22 6
-20 20 14 15 33 21 37 52 37 l36 0 0 -140 0 -140 -25 0 c-14 0 -25 -4 -25 -10
0 -6 34 -10 81 -10 51 0 78 4 74 10 -3 6 -14 10 -25 10 -26 0 -30 19 -30 156
l0 124 39 0 c40 0 51 -11 51 -51 0 -10 5 -19 10 -19 6 0 10 23 10 50 0 28 -1
49 -2 48 -2 -1 -60 -4 -130 -5z"/>
<path d="M7153 4522 c-7 -4 -31 -61 -54 -127 -50 -144 -65 -175 -84 -175 -8 0
-15 -4 -15 -10 0 -5 25 -10 55 -10 30 0 55 5 55 10 0 6 -9 10 -20 10 -23 0
-24 8 -8 61 11 39 11 39 63 39 l52 0 13 -45 c12 -42 11 -47 -6 -60 -17 -13
-12 -14 54 -15 76 0 88 5 47 20 -21 8 -31 30 -72 160 -26 82 -52 150 -58 150
-5 0 -15 -4 -22 -8z m21 -121 c9 -30 16 -56 16 -58 0 -2 -20 -3 -44 -3 l-44 0
21 65 c12 36 24 62 28 57 4 -4 14 -31 23 -61z"/>
<path d="M2938 4508 c21 -11 22 -16 22 -150 0 -130 -1 -138 -19 -138 -11 0
-23 -4 -26 -10 -4 -6 40 -10 124 -10 129 0 131 0 131 23 0 12 3 32 6 45 9 33
-9 26 -26 -11 -14 -30 -19 -32 -71 -35 -64 -3 -69 2 -69 91 l0 47 35 0 c27 0
37 -6 49 -27 15 -27 15 -27 15 32 0 50 -2 56 -11 38 -9 -18 -20 -23 -50 -23
l-38 0 0 44 c0 67 6 76 54 76 45 0 66 -13 66 -42 0 -10 5 -18 10 -18 6 0 10
18 10 40 l0 40 -117 -1 c-92 0 -113 -3 -95 -11z"/>
<path d="M3730 4510 c0 -5 9 -10 20 -10 19 0 20 -7 20 -140 0 -132 -1 -140
-19 -140 -11 0 -23 -4 -26 -10 -4 -6 24 -10 77 -9 71 0 79 2 58 12 -14 6 -28
16 -32 22 -9 12 -10 211 -2 243 5 16 14 22 33 22 46 0 64 -21 64 -73 0 -55
-15 -77 -54 -77 -16 0 -29 -4 -29 -10 0 -5 18 -10 41 -10 54 0 99 42 99 93 0
49 -8 66 -41 82 -33 17 -209 21 -209 5z"/>
<path d="M4640 4515 c0 -3 11 -10 25 -15 25 -9 25 -10 25 -140 0 -130 0 -131
-25 -140 -40 -15 -30 -20 45 -20 40 0 70 4 70 10 0 6 -9 10 -20 10 -18 0 -20
7 -20 65 0 61 1 65 23 65 40 0 65 -27 73 -78 8 -57 28 -82 65 -82 33 0 47 16
19 23 -14 3 -21 17 -26 46 -7 46 -37 91 -60 91 -8 0 -14 5 -14 10 0 6 6 10 13
10 23 0 57 45 57 74 0 15 -10 37 -25 51 -22 23 -31 25 -125 25 -55 0 -100 -2
-100 -5z m178 -27 c17 -17 15 -84 -4 -102 -8 -9 -29 -16 -45 -16 l-29 0 0 65
0 65 33 0 c18 0 38 -5 45 -12z"/>
<path d="M6598 4508 c21 -11 22 -16 22 -150 0 -131 -1 -138 -20 -138 -11 0
-20 -4 -20 -10 0 -6 48 -10 124 -10 l124 0 6 31 c13 67 1 80 -24 26 -14 -30
-19 -32 -72 -35 l-58 -3 0 71 0 71 33 -3 c22 -2 35 -10 42 -25 16 -38 25 -26
25 32 0 54 -13 74 -23 35 -4 -15 -14 -20 -41 -20 l-36 0 0 60 0 60 48 0 c45 0
50 -3 65 -32 l16 -33 0 43 1 42 -117 -1 c-92 0 -113 -3 -95 -11z"/>
<path d="M7470 4510 c0 -5 9 -10 20 -10 19 0 20 -7 20 -102 0 -138 -7 -178
-31 -178 -11 0 -19 -4 -19 -10 0 -6 27 -10 60 -10 33 0 60 4 60 10 0 6 -9 10
-20 10 -29 0 -31 12 -28 139 l3 112 54 -135 c30 -75 60 -135 65 -133 6 2 37
66 68 143 l57 139 1 -128 c0 -121 -1 -129 -20 -134 -43 -11 -17 -23 51 -23 44
0 68 4 64 10 -3 6 -15 10 -26 10 -18 0 -19 8 -19 140 0 133 1 140 20 140 11 0
20 5 20 10 0 6 -22 10 -49 10 l-48 0 -48 -115 c-26 -63 -50 -115 -54 -115 -3
0 -28 52 -55 115 l-49 115 -49 0 c-26 0 -48 -4 -48 -10z"/>
</g>
</svg>
