<svg version="1.1" id="Layer_1" xmlns="http://www.w3.org/2000/svg" xmlns:xlink="http://www.w3.org/1999/xlink" x="0px" y="0px"
	 width="100%" viewBox="0 0 3542 2237" enable-background="new 0 0 3542 2237" xml:space="preserve">
<path fill="#5A31F4" opacity="1.000000" stroke="none" 
	d="
M2246.000000,2240.000000 
	C1497.333496,2240.000000 749.666931,2240.000000 2.000301,2240.000000 
	C2.000201,1494.000244 2.000201,748.000549 2.000100,2.000401 
	C4.999732,2.000000 7.999465,2.000000 10.999197,2.000000 
	C1188.665649,2.000000 2366.332031,2.000000 3543.999023,2.000000 
	C3543.999268,747.999329 3543.999268,1493.998657 3543.999512,2239.999023 
	C3111.666748,2240.000000 2679.333252,2240.000000 2246.000000,2240.000000 
M2579.600098,1499.000244 
	C2579.751709,1450.696899 2579.902344,1402.393677 2580.083008,1354.090454 
	C2580.083740,1353.892700 2580.487061,1353.647949 2580.747803,1353.513062 
	C2581.022461,1353.370972 2581.351807,1353.334595 2581.821045,1353.207886 
	C2609.850830,1389.942139 2648.010498,1411.169556 2691.681885,1423.454834 
	C2725.185791,1432.880127 2759.371826,1434.337158 2793.730225,1429.431641 
	C2861.914795,1419.696655 2920.074707,1389.850098 2966.091309,1338.709229 
	C3038.146729,1258.630737 3061.654541,1163.712524 3042.921631,1059.145020 
	C3018.856445,924.812317 2913.035889,827.399353 2786.592285,810.854126 
	C2733.500244,803.906982 2683.810059,812.180420 2637.761719,840.101624 
	C2614.484375,854.215637 2594.115234,871.744263 2576.153809,892.147400 
	C2574.602295,893.910034 2572.690674,895.355957 2569.767578,898.025391 
	C2569.767578,885.827576 2569.768799,875.512634 2569.767334,865.197754 
	C2569.764893,849.535095 2569.872070,833.871277 2569.711182,818.210266 
	C2569.626953,810.011169 2567.867188,808.473816 2559.647705,808.195129 
	C2558.316162,808.149963 2556.981934,808.185181 2555.648926,808.185181 
	C2514.326172,808.184937 2473.003174,808.177856 2431.680420,808.188965 
	C2417.494385,808.192749 2417.452637,808.226685 2417.452148,822.944458 
	C2417.446289,1084.211182 2417.447510,1345.477905 2417.453613,1606.744629 
	C2417.453613,1609.409180 2417.485840,1612.075806 2417.594482,1614.737793 
	C2417.757080,1618.735596 2420.068115,1620.763550 2423.884766,1621.146729 
	C2425.867432,1621.345825 2427.876953,1621.317749 2429.874512,1621.318115 
	C2475.529541,1621.326904 2521.184570,1621.346802 2566.839600,1621.311035 
	C2578.764893,1621.301636 2579.582520,1620.409424 2579.590820,1607.973022 
	C2579.614746,1572.315430 2579.599854,1536.657837 2579.600098,1499.000244 
M1248.030273,1295.000000 
	C1248.031006,1223.670776 1247.959839,1152.341309 1248.119629,1081.012451 
	C1248.140381,1071.721802 1248.517944,1062.284912 1250.150269,1053.170166 
	C1257.493164,1012.170715 1280.198853,983.480042 1319.683472,968.934021 
	C1339.462646,961.647522 1360.094971,960.102783 1380.794922,962.529602 
	C1414.037720,966.426941 1437.400146,984.217773 1450.569824,1015.086304 
	C1452.655518,1019.975159 1454.494629,1025.003540 1456.000977,1030.099365 
	C1462.293335,1051.385498 1463.941284,1073.244141 1463.930786,1095.328125 
	C1463.880249,1201.655518 1463.910278,1307.983032 1463.912354,1414.310425 
	C1463.912476,1416.976929 1463.813721,1419.648682 1463.945435,1422.308960 
	C1464.297607,1429.419556 1465.814819,1430.974731 1472.883911,1431.457764 
	C1475.206787,1431.616699 1477.548584,1431.505127 1479.881714,1431.505249 
	C1523.212646,1431.506592 1566.543579,1431.506592 1609.874512,1431.504761 
	C1612.207642,1431.504761 1614.549316,1431.612305 1616.872437,1431.455444 
	C1623.906860,1430.980347 1625.563965,1429.323853 1625.947632,1422.364746 
	C1626.094238,1419.705933 1625.987305,1417.032959 1625.987305,1414.366455 
	C1625.988159,1305.039185 1626.063599,1195.711792 1625.908081,1086.384766 
	C1625.884521,1069.749390 1625.134521,1053.094360 1624.119019,1036.485229 
	C1621.922363,1000.556274 1613.231323,966.139404 1598.714722,933.225098 
	C1552.606689,828.681702 1453.441528,799.750916 1370.508667,811.263672 
	C1318.745605,818.449402 1276.867310,844.290771 1244.219727,885.080688 
	C1242.758179,886.906799 1240.932129,888.441345 1238.076660,891.320984 
	C1238.076660,885.637207 1238.076660,881.983398 1238.076660,878.329590 
	C1238.076660,791.667725 1238.077515,705.005859 1238.072388,618.343994 
	C1238.072266,615.345032 1238.110474,612.341125 1237.959473,609.348206 
	C1237.740601,605.011658 1235.287109,602.653503 1231.025391,602.332764 
	C1228.372437,602.132935 1225.696045,602.219727 1223.030151,602.219360 
	C1182.699097,602.214111 1142.367920,602.214050 1102.036865,602.216614 
	C1085.780640,602.217590 1085.771240,602.221802 1085.771118,618.004272 
	C1085.769287,883.989502 1085.769897,1149.974731 1085.770630,1415.959961 
	C1085.770752,1418.293091 1085.670166,1420.633301 1085.813354,1422.958130 
	C1086.211426,1429.424072 1087.723755,1430.933960 1094.308228,1431.454346 
	C1096.296387,1431.611328 1098.306030,1431.504883 1100.305908,1431.505005 
	C1144.636841,1431.506592 1188.967651,1431.506592 1233.298584,1431.504639 
	C1235.298340,1431.504639 1237.308472,1431.611084 1239.296143,1431.450684 
	C1245.817505,1430.924072 1247.509399,1429.286011 1247.974609,1422.990845 
	C1248.145996,1420.669678 1248.028687,1418.326538 1248.028809,1415.993408 
	C1248.030640,1376.328979 1248.030273,1336.664429 1248.030273,1295.000000 
M2150.049316,985.034180 
	C2199.554932,1059.451660 2207.631592,1139.265137 2178.196045,1222.555054 
	C2160.966797,1271.306152 2126.338867,1305.263184 2077.584473,1323.093262 
	C2025.260498,1342.228638 1972.475830,1341.618530 1920.171509,1322.238525 
	C1898.265747,1314.121948 1879.454102,1301.257202 1863.956543,1283.547729 
	C1832.189575,1247.246582 1821.914429,1176.848267 1871.777832,1133.028564 
	C1877.280029,1128.193237 1882.962769,1123.559448 1888.638794,1118.926514 
	C1897.350464,1111.815796 1898.661743,1106.374023 1893.494751,1096.342896 
	C1887.699585,1085.092041 1881.685669,1073.953857 1875.761475,1062.769531 
	C1866.095459,1044.520874 1856.546631,1026.208496 1846.710815,1008.051697 
	C1840.818970,997.174988 1833.441650,995.287964 1822.822021,1001.668945 
	C1816.544434,1005.441040 1810.358398,1009.395020 1804.351562,1013.583252 
	C1756.335693,1047.060547 1722.565308,1090.708740 1710.277100,1148.820557 
	C1699.075806,1201.792725 1704.046021,1253.714600 1725.249023,1303.517456 
	C1756.461792,1376.831421 1811.386108,1425.739014 1884.985474,1454.165894 
	C1944.675293,1477.219971 2006.252686,1480.659058 2068.829102,1468.975708 
	C2129.422119,1457.662842 2183.608398,1432.606323 2229.541504,1391.194946 
	C2296.798584,1330.558838 2330.890381,1253.635132 2337.432373,1164.238525 
	C2342.923340,1089.206177 2327.456787,1018.188049 2290.000977,952.849304 
	C2229.533447,847.368713 2137.780273,789.031433 2017.215210,775.645203 
	C1985.643921,772.139832 1954.022705,772.865723 1922.425659,775.699585 
	C1884.066772,779.140015 1846.825195,787.338196 1810.877075,801.339661 
	C1775.231201,815.223511 1742.991943,835.151062 1711.590698,856.623657 
	C1698.729736,865.417969 1697.653076,870.074646 1705.669556,883.928650 
	C1722.019531,912.183838 1738.423462,940.407776 1754.807861,968.643066 
	C1755.643677,970.083496 1756.435059,971.556091 1757.362671,972.936035 
	C1763.088135,981.453735 1771.341919,982.987305 1779.619263,976.921021 
	C1783.107666,974.364502 1786.314819,971.427002 1789.690674,968.713623 
	C1808.000610,953.996399 1828.046387,942.245789 1849.984741,933.823853 
	C1897.860596,915.444824 1947.690796,907.295288 1998.723511,908.197449 
	C2060.648682,909.292175 2111.668945,933.551941 2150.049316,985.034180 
M702.884094,777.914978 
	C667.185486,783.051575 633.384583,793.981262 602.923462,813.407959 
	C540.206238,853.405945 504.061401,907.917419 509.605621,985.439819 
	C512.895752,1031.444458 531.676208,1068.481323 568.463257,1096.376831 
	C593.946960,1115.701050 622.222046,1129.996216 652.397522,1139.818848 
	C692.253418,1152.792603 732.698975,1163.951660 772.864807,1175.978516 
	C786.247681,1179.985718 799.710144,1183.818237 812.839233,1188.553833 
	C823.857910,1192.528076 833.974243,1198.474365 842.025696,1207.276123 
	C855.756897,1222.286621 859.323364,1245.857910 840.236389,1263.405884 
	C830.711304,1272.162842 819.451965,1277.707520 807.384216,1281.855347 
	C783.792114,1289.964355 759.540222,1289.721069 735.222473,1286.986084 
	C717.571167,1285.000977 700.500671,1280.499756 684.931458,1271.605591 
	C667.011292,1261.368408 654.495605,1247.091797 651.268066,1225.859375 
	C649.985718,1217.423828 648.459351,1216.419678 638.975098,1216.476074 
	C592.987244,1216.749023 546.999634,1217.096191 501.012848,1217.511719 
	C491.572174,1217.597046 489.809967,1219.518066 490.572693,1228.899658 
	C494.022949,1271.338867 508.888275,1309.179688 536.717102,1341.614746 
	C569.406250,1379.714844 611.168762,1403.475586 658.640930,1418.020752 
	C702.003296,1431.306641 746.315369,1433.687744 791.183655,1429.220825 
	C828.924438,1425.463745 865.634766,1417.350464 899.486389,1399.796631 
	C972.304077,1362.036987 1013.817932,1304.431763 1009.923584,1219.696533 
	C1007.562256,1168.317749 986.400269,1125.964722 945.574585,1094.022705 
	C923.271057,1076.572388 898.315063,1063.837646 871.226379,1056.144165 
	C839.875366,1047.240356 808.039551,1040.048950 776.440247,1032.011719 
	C753.556458,1026.191284 730.248352,1021.801575 708.475952,1012.165527 
	C697.430420,1007.277039 687.016479,1001.414246 678.712402,992.420776 
	C660.513611,972.710876 664.038025,943.604126 686.886169,929.535645 
	C693.850037,925.247681 701.881104,922.225708 709.816650,920.074768 
	C729.693115,914.687195 750.029785,914.938782 770.355652,917.110291 
	C782.339722,918.390503 794.039307,920.990723 804.939270,926.316895 
	C820.898071,934.115112 831.275757,946.302368 834.239624,964.227295 
	C836.145081,975.751099 836.387146,975.950989 848.414734,975.919434 
	C890.406433,975.809387 932.397888,975.653687 974.389404,975.493347 
	C979.053650,975.475525 983.724243,975.442871 988.379395,975.188599 
	C993.131042,974.929016 995.802734,972.318970 995.566345,967.457703 
	C995.372681,963.475159 994.803101,959.508423 994.338562,955.541870 
	C986.644043,889.843506 953.920593,840.642334 895.712830,809.434814 
	C835.825500,777.326843 771.379333,770.002563 702.884094,777.914978 
z"/>
<path fill="#FEFEFF" opacity="1.000000" stroke="none" 
	d="
M2579.600098,1500.000244 
	C2579.599854,1536.657837 2579.614746,1572.315430 2579.590820,1607.973022 
	C2579.582520,1620.409424 2578.764893,1621.301636 2566.839600,1621.311035 
	C2521.184570,1621.346802 2475.529541,1621.326904 2429.874512,1621.318115 
	C2427.876953,1621.317749 2425.867432,1621.345825 2423.884766,1621.146729 
	C2420.068115,1620.763550 2417.757080,1618.735596 2417.594482,1614.737793 
	C2417.485840,1612.075806 2417.453613,1609.409180 2417.453613,1606.744629 
	C2417.447510,1345.477905 2417.446289,1084.211182 2417.452148,822.944458 
	C2417.452637,808.226685 2417.494385,808.192749 2431.680420,808.188965 
	C2473.003174,808.177856 2514.326172,808.184937 2555.648926,808.185181 
	C2556.981934,808.185181 2558.316162,808.149963 2559.647705,808.195129 
	C2567.867188,808.473816 2569.626953,810.011169 2569.711182,818.210266 
	C2569.872070,833.871277 2569.764893,849.535095 2569.767334,865.197754 
	C2569.768799,875.512634 2569.767578,885.827576 2569.767578,898.025391 
	C2572.690674,895.355957 2574.602295,893.910034 2576.153809,892.147400 
	C2594.115234,871.744263 2614.484375,854.215637 2637.761719,840.101624 
	C2683.810059,812.180420 2733.500244,803.906982 2786.592285,810.854126 
	C2913.035889,827.399353 3018.856445,924.812317 3042.921631,1059.145020 
	C3061.654541,1163.712524 3038.146729,1258.630737 2966.091309,1338.709229 
	C2920.074707,1389.850098 2861.914795,1419.696655 2793.730225,1429.431641 
	C2759.371826,1434.337158 2725.185791,1432.880127 2691.681885,1423.454834 
	C2648.010498,1411.169556 2609.850830,1389.942139 2581.821045,1353.207886 
	C2581.351807,1353.334595 2581.022461,1353.370972 2580.747803,1353.513062 
	C2580.487061,1353.647949 2580.083740,1353.892700 2580.083008,1354.090454 
	C2579.902344,1402.393677 2579.751709,1450.696899 2579.600098,1500.000244 
M2824.332031,992.620239 
	C2788.221924,966.687256 2748.202393,957.073486 2704.249512,963.819946 
	C2615.386963,977.459839 2555.149170,1066.485474 2574.907227,1154.420044 
	C2592.601318,1233.168823 2665.420898,1285.346558 2743.677002,1278.529541 
	C2790.460205,1274.454102 2828.312744,1254.128784 2856.901367,1217.091919 
	C2907.750488,1151.216187 2898.521484,1048.474731 2824.332031,992.620239 
z"/>
<path fill="#FEFEFF" opacity="1.000000" stroke="none" 
	d="
M1248.030273,1296.000000 
	C1248.030273,1336.664429 1248.030640,1376.328979 1248.028809,1415.993408 
	C1248.028687,1418.326538 1248.145996,1420.669678 1247.974609,1422.990845 
	C1247.509399,1429.286011 1245.817505,1430.924072 1239.296143,1431.450684 
	C1237.308472,1431.611084 1235.298340,1431.504639 1233.298584,1431.504639 
	C1188.967651,1431.506592 1144.636841,1431.506592 1100.305908,1431.505005 
	C1098.306030,1431.504883 1096.296387,1431.611328 1094.308228,1431.454346 
	C1087.723755,1430.933960 1086.211426,1429.424072 1085.813354,1422.958130 
	C1085.670166,1420.633301 1085.770752,1418.293091 1085.770630,1415.959961 
	C1085.769897,1149.974731 1085.769287,883.989502 1085.771118,618.004272 
	C1085.771240,602.221802 1085.780640,602.217590 1102.036865,602.216614 
	C1142.367920,602.214050 1182.699097,602.214111 1223.030151,602.219360 
	C1225.696045,602.219727 1228.372437,602.132935 1231.025391,602.332764 
	C1235.287109,602.653503 1237.740601,605.011658 1237.959473,609.348206 
	C1238.110474,612.341125 1238.072266,615.345032 1238.072388,618.343994 
	C1238.077515,705.005859 1238.076660,791.667725 1238.076660,878.329590 
	C1238.076660,881.983398 1238.076660,885.637207 1238.076660,891.320984 
	C1240.932129,888.441345 1242.758179,886.906799 1244.219727,885.080688 
	C1276.867310,844.290771 1318.745605,818.449402 1370.508667,811.263672 
	C1453.441528,799.750916 1552.606689,828.681702 1598.714722,933.225098 
	C1613.231323,966.139404 1621.922363,1000.556274 1624.119019,1036.485229 
	C1625.134521,1053.094360 1625.884521,1069.749390 1625.908081,1086.384766 
	C1626.063599,1195.711792 1625.988159,1305.039185 1625.987305,1414.366455 
	C1625.987305,1417.032959 1626.094238,1419.705933 1625.947632,1422.364746 
	C1625.563965,1429.323853 1623.906860,1430.980347 1616.872437,1431.455444 
	C1614.549316,1431.612305 1612.207642,1431.504761 1609.874512,1431.504761 
	C1566.543579,1431.506592 1523.212646,1431.506592 1479.881714,1431.505249 
	C1477.548584,1431.505127 1475.206787,1431.616699 1472.883911,1431.457764 
	C1465.814819,1430.974731 1464.297607,1429.419556 1463.945435,1422.308960 
	C1463.813721,1419.648682 1463.912476,1416.976929 1463.912354,1414.310425 
	C1463.910278,1307.983032 1463.880249,1201.655518 1463.930786,1095.328125 
	C1463.941284,1073.244141 1462.293335,1051.385498 1456.000977,1030.099365 
	C1454.494629,1025.003540 1452.655518,1019.975159 1450.569824,1015.086304 
	C1437.400146,984.217773 1414.037720,966.426941 1380.794922,962.529602 
	C1360.094971,960.102783 1339.462646,961.647522 1319.683472,968.934021 
	C1280.198853,983.480042 1257.493164,1012.170715 1250.150269,1053.170166 
	C1248.517944,1062.284912 1248.140381,1071.721802 1248.119629,1081.012451 
	C1247.959839,1152.341309 1248.031006,1223.670776 1248.030273,1296.000000 
z"/>
<path fill="#FEFEFF" opacity="1.000000" stroke="none" 
	d="
M2149.631104,984.451721 
	C2111.668945,933.551941 2060.648682,909.292175 1998.723511,908.197449 
	C1947.690796,907.295288 1897.860596,915.444824 1849.984741,933.823853 
	C1828.046387,942.245789 1808.000610,953.996399 1789.690674,968.713623 
	C1786.314819,971.427002 1783.107666,974.364502 1779.619263,976.921021 
	C1771.341919,982.987305 1763.088135,981.453735 1757.362671,972.936035 
	C1756.435059,971.556091 1755.643677,970.083496 1754.807861,968.643066 
	C1738.423462,940.407776 1722.019531,912.183838 1705.669556,883.928650 
	C1697.653076,870.074646 1698.729736,865.417969 1711.590698,856.623657 
	C1742.991943,835.151062 1775.231201,815.223511 1810.877075,801.339661 
	C1846.825195,787.338196 1884.066772,779.140015 1922.425659,775.699585 
	C1954.022705,772.865723 1985.643921,772.139832 2017.215210,775.645203 
	C2137.780273,789.031433 2229.533447,847.368713 2290.000977,952.849304 
	C2327.456787,1018.188049 2342.923340,1089.206177 2337.432373,1164.238525 
	C2330.890381,1253.635132 2296.798584,1330.558838 2229.541504,1391.194946 
	C2183.608398,1432.606323 2129.422119,1457.662842 2068.829102,1468.975708 
	C2006.252686,1480.659058 1944.675293,1477.219971 1884.985474,1454.165894 
	C1811.386108,1425.739014 1756.461792,1376.831421 1725.249023,1303.517456 
	C1704.046021,1253.714600 1699.075806,1201.792725 1710.277100,1148.820557 
	C1722.565308,1090.708740 1756.335693,1047.060547 1804.351562,1013.583252 
	C1810.358398,1009.395020 1816.544434,1005.441040 1822.822021,1001.668945 
	C1833.441650,995.287964 1840.818970,997.174988 1846.710815,1008.051697 
	C1856.546631,1026.208496 1866.095459,1044.520874 1875.761475,1062.769531 
	C1881.685669,1073.953857 1887.699585,1085.092041 1893.494751,1096.342896 
	C1898.661743,1106.374023 1897.350464,1111.815796 1888.638794,1118.926514 
	C1882.962769,1123.559448 1877.280029,1128.193237 1871.777832,1133.028564 
	C1821.914429,1176.848267 1832.189575,1247.246582 1863.956543,1283.547729 
	C1879.454102,1301.257202 1898.265747,1314.121948 1920.171509,1322.238525 
	C1972.475830,1341.618530 2025.260498,1342.228638 2077.584473,1323.093262 
	C2126.338867,1305.263184 2160.966797,1271.306152 2178.196045,1222.555054 
	C2207.631592,1139.265137 2199.554932,1059.451660 2149.631104,984.451721 
z"/>
<path fill="#FEFEFF" opacity="1.000000" stroke="none" 
	d="
M703.769287,777.811462 
	C771.379333,770.002563 835.825500,777.326843 895.712830,809.434814 
	C953.920593,840.642334 986.644043,889.843506 994.338562,955.541870 
	C994.803101,959.508423 995.372681,963.475159 995.566345,967.457703 
	C995.802734,972.318970 993.131042,974.929016 988.379395,975.188599 
	C983.724243,975.442871 979.053650,975.475525 974.389404,975.493347 
	C932.397888,975.653687 890.406433,975.809387 848.414734,975.919434 
	C836.387146,975.950989 836.145081,975.751099 834.239624,964.227295 
	C831.275757,946.302368 820.898071,934.115112 804.939270,926.316895 
	C794.039307,920.990723 782.339722,918.390503 770.355652,917.110291 
	C750.029785,914.938782 729.693115,914.687195 709.816650,920.074768 
	C701.881104,922.225708 693.850037,925.247681 686.886169,929.535645 
	C664.038025,943.604126 660.513611,972.710876 678.712402,992.420776 
	C687.016479,1001.414246 697.430420,1007.277039 708.475952,1012.165527 
	C730.248352,1021.801575 753.556458,1026.191284 776.440247,1032.011719 
	C808.039551,1040.048950 839.875366,1047.240356 871.226379,1056.144165 
	C898.315063,1063.837646 923.271057,1076.572388 945.574585,1094.022705 
	C986.400269,1125.964722 1007.562256,1168.317749 1009.923584,1219.696533 
	C1013.817932,1304.431763 972.304077,1362.036987 899.486389,1399.796631 
	C865.634766,1417.350464 828.924438,1425.463745 791.183655,1429.220825 
	C746.315369,1433.687744 702.003296,1431.306641 658.640930,1418.020752 
	C611.168762,1403.475586 569.406250,1379.714844 536.717102,1341.614746 
	C508.888275,1309.179688 494.022949,1271.338867 490.572693,1228.899658 
	C489.809967,1219.518066 491.572174,1217.597046 501.012848,1217.511719 
	C546.999634,1217.096191 592.987244,1216.749023 638.975098,1216.476074 
	C648.459351,1216.419678 649.985718,1217.423828 651.268066,1225.859375 
	C654.495605,1247.091797 667.011292,1261.368408 684.931458,1271.605591 
	C700.500671,1280.499756 717.571167,1285.000977 735.222473,1286.986084 
	C759.540222,1289.721069 783.792114,1289.964355 807.384216,1281.855347 
	C819.451965,1277.707520 830.711304,1272.162842 840.236389,1263.405884 
	C859.323364,1245.857910 855.756897,1222.286621 842.025696,1207.276123 
	C833.974243,1198.474365 823.857910,1192.528076 812.839233,1188.553833 
	C799.710144,1183.818237 786.247681,1179.985718 772.864807,1175.978516 
	C732.698975,1163.951660 692.253418,1152.792603 652.397522,1139.818848 
	C622.222046,1129.996216 593.946960,1115.701050 568.463257,1096.376831 
	C531.676208,1068.481323 512.895752,1031.444458 509.605621,985.439819 
	C504.061401,907.917419 540.206238,853.405945 602.923462,813.407959 
	C633.384583,793.981262 667.185486,783.051575 703.769287,777.811462 
z"/>
<path fill="#5B32F4" opacity="1.000000" stroke="none" 
	d="
M2824.897461,993.062134 
	C2898.521484,1048.474731 2907.750488,1151.216187 2856.901367,1217.091919 
	C2828.312744,1254.128784 2790.460205,1274.454102 2743.677002,1278.529541 
	C2665.420898,1285.346558 2592.601318,1233.168823 2574.907227,1154.420044 
	C2555.149170,1066.485474 2615.386963,977.459839 2704.249512,963.819946 
	C2748.202393,957.073486 2788.221924,966.687256 2824.897461,993.062134 
z"/>
</svg>